<?xml version="1.0" encoding="utf-8"?>
<svg viewBox="0 0 500 500" xmlns="http://www.w3.org/2000/svg">
  <path opacity="1.000000" stroke="none" d="M 194.904 206.861 C 194.89 207.779 194.867 208.697 194.867 209.616 C 194.864 268.499 194.864 327.382 194.864 386.264 C 194.864 388.949 194.862 388.952 192.212 388.952 C 168.991 388.953 145.768 388.953 122.546 388.953 C 121.768 388.953 120.989 388.953 120.099 388.953 C 120.099 283.427 120.099 178.129 120.099 72.577 C 120.77 72.577 121.42 72.577 122.069 72.577 C 147.129 72.577 172.19 72.589 197.25 72.543 C 198.605 72.541 199.287 72.993 199.959 74.129 C 209.675 90.55 219.445 106.94 229.199 123.338 C 237.608 137.475 246.012 151.616 254.422 165.752 C 263.304 180.679 272.191 195.6 281.072 210.526 C 288.859 223.611 296.641 236.699 304.429 249.784 C 304.729 250.288 305.067 250.769 305.66 251.68 C 305.66 191.742 305.66 132.294 305.66 72.711 C 330.967 72.711 356.105 72.711 381.351 72.711 C 381.351 178.038 381.351 283.335 381.351 388.832 C 380.694 388.872 380.051 388.947 379.407 388.947 C 354.652 388.953 329.899 388.941 305.145 388.982 C 303.823 388.984 303.078 388.607 302.393 387.443 C 294.116 373.363 285.782 359.318 277.461 345.264 C 266.305 326.423 255.149 307.582 243.992 288.741 C 235.049 273.634 226.105 258.526 217.159 243.42 C 209.965 231.27 202.766 219.123 195.489 206.778 C 195.254 206.446 195.099 206.312 194.945 206.176 C 194.931 206.404 194.917 206.632 194.904 206.861 Z" style="fill: rgb(255, 10, 10);"/>
  <path style="stroke: rgb(255, 255, 255); fill: rgb(255, 255, 255); stroke-width: 1.5px;" d="M 194.395 321.813 L 139.368 388.932 L 120.593 389.051 L 120.338 364.758 L 194.385 274.897 L 194.395 321.813 Z"/>
  <path style="stroke: rgb(255, 255, 255); fill: rgb(255, 255, 255); stroke-width: 1.5px; transform-origin: 343.75px 130.047px;" d="M 381.461 119.91 L 325.583 186.86 L 306.519 186.979 L 306.039 162.964 L 381.45 73.114 L 381.461 119.91 Z" transform="matrix(-1, 0, 0, -1, 0.000010244548, 0.000003875688)"/>
  <path style="fill: rgb(255, 255, 255); stroke: rgb(255, 255, 255); stroke-width: 1.5px;" d="M 235.135 273.062 L 283.085 214.924 L 266.933 187.686 L 219.068 245.741 L 235.135 273.062 Z"/>
</svg>