<?xml version="1.0" encoding="utf-8"?>
<svg viewBox="0 0 738 891" xmlns="http://www.w3.org/2000/svg">
  <path opacity="1.000000" stroke="none" d="M 217.627 384.528 C 217.589 387.031 217.527 389.534 217.527 392.041 C 217.519 552.622 217.519 713.204 217.519 873.784 C 217.519 881.106 217.513 881.114 210.303 881.114 C 147.118 881.117 83.929 881.117 20.741 881.117 C 18.624 881.117 16.505 881.117 14.083 881.117 C 14.083 593.333 14.083 306.171 14.083 18.317 C 15.909 18.317 17.677 18.317 19.443 18.317 C 87.631 18.317 155.822 18.349 224.011 18.224 C 227.698 18.219 229.554 19.451 231.382 22.549 C 257.82 67.331 284.404 112.029 310.944 156.749 C 333.825 195.303 356.692 233.867 379.576 272.418 C 403.744 313.126 427.925 353.817 452.091 394.522 C 473.279 430.207 494.454 465.9 515.645 501.585 C 516.461 502.958 517.382 504.27 518.995 506.755 C 518.995 343.296 518.995 181.173 518.995 18.683 C 587.855 18.683 656.256 18.683 724.95 18.683 C 724.95 305.923 724.95 593.083 724.95 880.787 C 723.162 880.895 721.412 881.101 719.661 881.101 C 652.302 881.117 584.949 881.084 517.593 881.196 C 513.996 881.202 511.969 880.174 510.106 876.999 C 487.583 838.601 464.906 800.298 442.265 761.971 C 411.91 710.589 381.554 659.207 351.196 607.825 C 326.862 566.627 302.525 525.424 278.184 484.229 C 258.608 451.094 239.02 417.967 219.219 384.301 C 218.579 383.395 218.158 383.03 217.739 382.659 C 217.701 383.281 217.663 383.903 217.627 384.528 Z" style="fill: rgb(255, 10, 10);"/>
  <path style="stroke: rgb(0, 0, 0); fill: rgb(0, 0, 0); stroke-width: 1.5px;" d="M 216.243 698.017 L 66.514 881.06 L 15.427 881.384 L 14.733 815.133 L 216.215 570.071 L 216.243 698.017 Z"/>
  <path style="stroke: rgb(0, 0, 0); fill: rgb(0, 0, 0); stroke-width: 1.5px; transform-origin: 622.638px 175.045px;" d="M 725.249 147.4 L 573.205 329.982 L 521.332 330.306 L 520.025 264.814 L 725.219 19.781 L 725.249 147.4 Z" transform="matrix(-1, 0, 0, -1, 0.000018556058, -0.000025300831)"/>
  <path style="fill: rgb(0, 0, 0); stroke: rgb(0, 0, 0); stroke-width: 1.5px;" d="M 327.096 565.067 L 457.568 406.516 L 413.619 332.234 L 283.377 490.559 L 327.096 565.067 Z"/>
</svg>