<svg xmlns="http://www.w3.org/2000/svg" xmlns:svg="http://www.w3.org/2000/svg" width="16" height="16" version="1.1"
    x="0px" y="0px" viewBox="0 0 738 891" enableBackground="new 0 0 738 891">
    <path opacity="1.000000" stroke="none" fill="#0aff9d"
        d=" M218.602325,384.232117   C218.566925,386.730804 218.500610,389.229462 218.500519,391.728149   C218.495590,551.880127 218.496292,712.032043 218.494949,872.184021   C218.494888,879.487244 218.488129,879.494507 211.282303,879.494751   C148.121445,879.496704 84.960571,879.495972 21.799711,879.495972   C19.682779,879.495972 17.565847,879.495972 15.143876,879.495972   C15.143876,592.481506 15.143876,306.085541 15.143876,19.000284   C16.969149,19.000284 18.736128,19.000284 20.503109,19.000284   C88.663513,19.000280 156.823990,19.033857 224.984161,18.908190   C228.668701,18.901396 230.523987,20.132444 232.351364,23.220854   C258.778473,67.884361 285.351471,112.461510 311.882263,157.063644   C334.753998,195.514328 357.609741,233.974518 380.484985,272.423126   C404.638702,313.020721 428.810913,353.607330 452.967896,394.203003   C474.146332,429.793213 495.312897,465.390533 516.494812,500.978729   C517.310852,502.349823 518.231384,503.658722 519.845215,506.135345   C519.845215,343.112854 519.845215,181.421722 519.845215,19.365685   C588.673035,19.365685 657.046631,19.365685 725.710327,19.365685   C725.710327,305.842163 725.710327,592.231995 725.710327,879.168823   C723.924988,879.279114 722.174683,879.481384 720.424316,879.481812   C653.097168,879.497864 585.769958,879.466614 518.442993,879.575745   C514.847046,879.581543 512.819214,878.557922 510.958130,875.391968   C488.446594,837.096863 465.775940,798.895325 443.144257,760.670898   C412.802856,709.424927 382.458771,658.180603 352.117004,606.934875   C327.789062,565.846191 303.466248,524.754456 279.134888,483.667877   C259.565918,450.623230 239.987488,417.584198 220.195282,384.008087   C219.556183,383.106293 219.135071,382.739075 218.713959,382.371887   C218.676743,382.991974 218.639542,383.612030 218.602325,384.232117  z" />
</svg>